<svg width="117" height="53" viewBox="0 0 117 53" fill="none" xmlns="http://www.w3.org/2000/svg">
<rect width="86.423" height="38.8183" rx="7" transform="matrix(-0.990621 -0.13664 -0.13664 0.990621 92.9622 13.3953)" fill="#04294F" stroke="#00AEE0" stroke-opacity="0.27" stroke-width="4"/>
<path d="M26.8291 17.7514C26.7167 16.4608 27.3903 15.6102 28.5358 15.5028C29.7323 15.3906 30.4843 16.1077 30.5967 17.3983L31.2839 24.7298L35.9679 24.2907L35.1885 15.9749C34.9297 13.123 32.9399 11.2551 30.1821 11.5136C28.2559 11.6941 26.9226 12.8121 26.493 14.5301L26.3572 14.5428L25.7177 7.72046L21.2034 8.14361L22.8323 25.522L27.5164 25.0829L26.8291 17.7514Z" fill="white"/>
<path d="M36.8465 24.2084L41.5306 23.7693L40.8179 16.1663C40.7113 15.0292 41.2401 14.2777 42.2074 14.187C43.1748 14.0964 43.8679 14.7333 43.9745 15.8704L44.6872 23.4734L49.1675 23.0535L48.4549 15.4504C48.3483 14.3134 48.877 13.5619 49.8444 13.4712C50.8118 13.3805 51.5049 14.0175 51.6115 15.1545L52.3242 22.7576L57.0082 22.3185L56.1841 13.5275C55.9336 10.8546 54.0565 9.27571 51.5617 9.50955C49.627 9.6909 48.1643 10.8895 47.8726 12.5261L47.7368 12.5388C47.3158 10.969 45.7576 10.0536 43.9247 10.2254C42.1173 10.3948 40.8296 11.5427 40.4393 13.2229L40.3035 13.2356L40.0712 10.7578L35.6248 11.1746L36.8465 24.2084Z" fill="white"/>
<path d="M64.1523 21.8886C67.7671 21.5497 69.9299 19.6007 70.1166 16.844L65.8399 17.2449C65.6375 18.0086 64.9043 18.4967 63.9455 18.5866C62.5538 18.7171 61.6533 17.877 61.5356 16.6211L61.5165 16.4175L70.0021 15.6221L69.9002 14.5359C69.5113 10.3865 66.7278 8.08796 62.7905 8.45702C58.7514 8.83562 56.4232 11.7588 56.8018 15.798C57.1971 20.0153 59.9774 22.2799 64.1523 21.8886ZM61.2747 13.8379C61.1944 12.7069 62.0554 11.8472 63.201 11.7399C64.3635 11.6309 65.3192 12.3288 65.4496 13.4465L61.2747 13.8379Z" fill="white"/>
<path d="M75.7226 20.7355C77.5555 20.5637 78.7191 19.4617 79.1381 18.087L79.2399 18.0775L79.4403 20.2159L84.0904 19.78L82.4615 2.40161L77.7774 2.84067L78.3979 9.45938L78.33 9.46574C77.6968 8.18972 76.3698 7.18417 74.4351 7.36552C71.8555 7.60732 69.5284 9.81139 69.9706 14.5293C70.3937 19.0437 72.9394 20.9964 75.7226 20.7355ZM77.1164 16.9754C75.8266 17.0963 74.9717 16.0123 74.7904 14.0776C74.609 12.1429 75.2476 10.9188 76.5374 10.7979C77.8272 10.677 78.716 11.7579 78.8974 13.6926C79.0755 15.5934 78.4062 16.8545 77.1164 16.9754Z" fill="white"/>
<path d="M5.51086 30.7066L7.13982 48.085L11.7559 47.6523L10.8078 37.5375L10.9436 37.5248L15.7484 47.1411L18.5316 46.8802L21.472 36.6064L21.6078 36.5937L22.5495 46.6405L27.1657 46.2078L25.5367 28.8295L19.6647 29.3799L16.5483 39.6017L16.3446 39.6208L11.3829 30.1562L5.51086 30.7066Z" fill="white"/>
<path d="M31.6867 45.9895C33.3838 45.8304 34.611 45.1333 35.2634 43.5998L35.3652 43.5903L35.537 45.4232L39.9155 45.0127L39.0788 36.086C38.8529 33.6761 36.3953 32.0232 32.6701 32.3724C28.7753 32.7375 27.0484 34.9538 27.1099 37.3448L31.4206 36.9408C31.4553 36.1243 32.0135 35.6868 32.9045 35.6033C33.7191 35.5269 34.3311 35.8462 34.3948 36.525L34.3979 36.559C34.4687 37.3142 33.6594 37.6297 31.4853 37.9962C28.8136 38.4435 26.8195 39.7261 27.0876 42.5857C27.331 45.1823 29.1919 46.2234 31.6867 45.9895ZM32.9373 42.8934C32.1396 42.9681 31.543 42.6303 31.4746 41.9006C31.4118 41.2302 31.8384 40.668 32.9087 40.3965C33.6443 40.2077 34.2579 39.9961 34.7309 39.7463L34.8328 40.8325C34.9441 42.0205 33.998 42.794 32.9373 42.8934Z" fill="white"/>
<path d="M44.7167 37.1668C44.6042 35.8762 45.2778 35.0255 46.4233 34.9182C47.6198 34.806 48.3718 35.5231 48.4842 36.8136L49.1715 44.1451L53.8555 43.7061L53.076 35.3903C52.8172 32.5383 50.8274 30.6704 48.0696 30.9289C46.1434 31.1095 44.8101 32.2274 44.3805 33.9455L44.2447 33.9582L43.6052 27.1358L39.0909 27.559L40.7199 44.9374L45.4039 44.4983L44.7167 37.1668Z" fill="white"/>
<path d="M54.7341 43.6237L59.4181 43.1847L58.7054 35.5816C58.5988 34.4446 59.1276 33.6931 60.0949 33.6024C61.0623 33.5117 61.7554 34.1487 61.862 35.2858L62.5747 42.8888L67.055 42.4688L66.3424 34.8658C66.2358 33.7287 66.7646 32.9772 67.7319 32.8866C68.6993 32.7959 69.3924 33.4329 69.499 34.5699L70.2117 42.173L74.8957 41.7339L74.0717 32.9429C73.8211 30.2699 71.944 28.6911 69.4492 28.9249C67.5145 29.1063 66.0518 30.3048 65.7601 31.9415L65.6243 31.9542C65.2033 30.3844 63.6451 29.469 61.8123 29.6408C60.0048 29.8102 58.7171 30.9581 58.3268 32.6382L58.191 32.651L57.9588 30.1732L53.5123 30.59L54.7341 43.6237Z" fill="white"/>
<path d="M82.0737 41.3007C86.3165 40.9031 88.5737 37.9522 88.1982 33.9471C87.8228 29.9419 85.0566 27.462 80.8138 27.8597C76.5711 28.2574 74.3139 31.2082 74.6893 35.2133C75.0647 39.2185 77.8309 41.6984 82.0737 41.3007ZM81.7831 37.8355C80.5273 37.9532 79.6636 36.7758 79.4719 34.7308C79.2803 32.6858 79.9101 31.3684 81.1659 31.2507C82.3539 31.1393 83.2175 32.3167 83.4092 34.3617C83.6009 36.4067 82.9711 37.7241 81.7831 37.8355Z" fill="white"/>
<path d="M97.1901 33.8918C97.3194 35.1808 96.6459 36.0314 95.4834 36.1404C94.3039 36.251 93.5519 35.5339 93.4225 34.2449L92.7353 26.9134L88.0513 27.3525L88.8307 35.6683C89.1065 38.5186 91.0963 40.3865 93.8371 40.1296C95.7803 39.9475 97.1815 38.8232 97.5941 37.1067L97.7299 37.094L97.9622 39.5718L102.409 39.155L101.187 26.1212L96.5028 26.5603L97.1901 33.8918Z" fill="white"/>
<path d="M108.091 38.7935C109.924 38.6217 111.087 37.5197 111.506 36.1451L111.608 36.1355L111.809 38.2739L116.459 37.838L114.83 20.4596L110.146 20.8987L110.766 27.5174L110.698 27.5238C110.065 26.2477 108.738 25.2422 106.804 25.4235C104.224 25.6653 101.897 27.8694 102.339 32.5874C102.762 37.1017 105.308 39.0544 108.091 38.7935ZM109.485 35.0334C108.195 35.1543 107.34 34.0703 107.159 32.1356C106.977 30.2009 107.616 28.9769 108.906 28.856C110.196 28.7351 111.084 29.8159 111.266 31.7506C111.444 33.6514 110.775 34.9125 109.485 35.0334Z" fill="white"/>
<path d="M9.69429 26.7535L10.3838 23.3333L16.12 22.7956L17.4331 26.0281L22.5244 25.5508L15.1592 8.71014L8.71023 9.31464L4.60297 27.2307L9.69429 26.7535ZM11.1221 19.7031L12.3154 13.8046L12.4512 13.7919L14.7199 19.3658L11.1221 19.7031Z" fill="#FAB316"/>
</svg>
